<?xml version="1.0" encoding="UTF-8"?>
<!DOCTYPE svg PUBLIC "-//W3C//DTD SVG 1.1//EN" "http://www.w3.org/Graphics/SVG/1.1/DTD/svg11.dtd">
<svg xmlns="http://www.w3.org/2000/svg" version="1.1" width="720px" height="1080px" style="shape-rendering:geometricPrecision; text-rendering:geometricPrecision; image-rendering:optimizeQuality; fill-rule:evenodd; clip-rule:evenodd" xmlns:xlink="http://www.w3.org/1999/xlink">
<g><path style="opacity:1" fill="var(--primary-primary100)" d="M 603.5,102.5 C 605.861,103.435 608.028,104.768 610,106.5C 615.108,115.115 618.108,124.448 619,134.5C 619.792,155.867 619.292,177.201 617.5,198.5C 614.314,217.783 610.648,237.116 606.5,256.5C 616.797,283.722 625.464,311.389 632.5,339.5C 606.223,277.497 565.556,224.997 510.5,182C 509.101,180.938 508.101,179.605 507.5,178C 531.965,141.201 563.965,116.034 603.5,102.5 Z"/></g>
<g><path style="opacity:1" fill="var(--primary-primary100)" d="M 111.5,104.5 C 127.394,107.297 142.061,113.13 155.5,122C 175.875,136.708 193.208,154.375 207.5,175C 208.5,175.667 209.5,175.667 210.5,175C 213.328,172.752 216.328,170.752 219.5,169C 220.517,167.951 220.684,166.784 220,165.5C 213.187,152.035 203.687,140.869 191.5,132C 191.833,131.833 192.167,131.667 192.5,131.5C 206.493,139.989 219.493,149.822 231.5,161C 233.402,162.651 235.402,162.984 237.5,162C 182.003,204.148 138.17,255.981 106,317.5C 87.9601,357.319 76.2935,398.986 71,442.5C 69.3975,468.667 70.7308,494.667 75,520.5C 76.5381,525.915 78.3714,531.248 80.5,536.5C 80.3764,537.107 80.0431,537.44 79.5,537.5C 68.2314,508.616 63.398,478.616 65,447.5C 70.2492,382.579 84.9159,319.912 109,259.5C 109.667,256.5 109.667,253.5 109,250.5C 104.028,228.726 100.528,206.726 98.5,184.5C 98.5738,168.497 98.5738,152.497 98.5,136.5C 98.6928,126.062 101.526,116.396 107,107.5C 108.129,105.859 109.629,104.859 111.5,104.5 Z"/></g>
<g><path style="opacity:1" fill="var(--primary-primary100)" d="M 98.5,136.5 C 98.5738,152.497 98.5738,168.497 98.5,184.5C 97.3124,168.341 97.3124,152.341 98.5,136.5 Z"/></g>
<g><path style="opacity:1" fill="var(--primary-primary90)" d="M 622.5,566.5 C 631.766,574.263 640.599,582.596 649,591.5C 663.148,607.149 675.315,624.149 685.5,642.5C 676.244,631.084 665.244,621.584 652.5,614C 642.324,609.149 632.157,604.316 622,599.5C 621.228,599.645 620.561,599.978 620,600.5C 615.288,617.26 606.955,631.927 595,644.5C 578.606,660.569 560.773,674.736 541.5,687C 514.783,702.691 486.783,715.691 457.5,726C 448.263,728.78 438.93,730.78 429.5,732C 444.802,725.033 458.802,716.033 471.5,705C 452.148,713.015 432.482,720.682 412.5,728C 400.903,731.318 389.237,733.985 377.5,736C 402.851,715.982 430.185,698.982 459.5,685C 492.477,671.659 523.81,655.325 553.5,636C 566.61,626.223 579.11,615.723 591,604.5C 601.741,591.935 612.241,579.268 622.5,566.5 Z"/></g>
<g><path style="opacity:1" fill="var(--primary-primary90)" d="M 94.5,566.5 C 119.878,602.375 152.211,630.208 191.5,650C 234.365,669.761 275.698,692.095 315.5,717C 323.348,722.759 331.015,728.759 338.5,735C 315.708,730.183 293.374,723.517 271.5,715C 245.317,709.038 219.65,701.371 194.5,692C 153.548,674.38 122.048,646.213 100,607.5C 98.4548,612.047 98.1215,616.713 99,621.5C 101.307,631.07 103.974,640.403 107,649.5C 99.8719,640.703 92.3719,632.203 84.5,624C 74.0058,617.439 64.0058,618.106 54.5,626C 46.5993,632.399 39.5993,639.566 33.5,647.5C 49.7026,617.446 70.036,590.446 94.5,566.5 Z"/></g>
<g><path style="opacity:1" fill="var(--primary-primary90)" d="M 527.5,128.5 C 512.06,138.256 497.726,149.589 484.5,162.5C 486.77,164.975 489.437,166.975 492.5,168.5C 502.102,153.565 514.102,140.898 528.5,130.5C 543.411,119.874 559.411,111.041 576.5,104C 585.508,100.239 594.508,99.7389 603.5,102.5C 563.965,116.034 531.965,141.201 507.5,178C 508.101,179.605 509.101,180.938 510.5,182C 565.556,224.997 606.223,277.497 632.5,339.5C 639.701,365.337 645.201,391.671 649,418.5C 657.446,471.089 648.612,520.423 622.5,566.5C 612.241,579.268 601.741,591.935 591,604.5C 579.11,615.723 566.61,626.223 553.5,636C 523.81,655.325 492.477,671.659 459.5,685C 430.185,698.982 402.851,715.982 377.5,736C 389.237,733.985 400.903,731.318 412.5,728C 432.482,720.682 452.148,713.015 471.5,705C 458.802,716.033 444.802,725.033 429.5,732C 438.93,730.78 448.263,728.78 457.5,726C 486.783,715.691 514.783,702.691 541.5,687C 560.773,674.736 578.606,660.569 595,644.5C 606.955,631.927 615.288,617.26 620,600.5C 620.561,599.978 621.228,599.645 622,599.5C 632.157,604.316 642.324,609.149 652.5,614C 665.244,621.584 676.244,631.084 685.5,642.5C 687.892,645.598 690.058,648.931 692,652.5C 702.852,673.585 712.018,695.252 719.5,717.5C 719.5,838.167 719.5,958.833 719.5,1079.5C 704.5,1079.5 689.5,1079.5 674.5,1079.5C 676.497,1072.34 678.997,1065.34 682,1058.5C 683.325,1054.57 683.658,1050.57 683,1046.5C 675.634,1041.31 668.634,1035.65 662,1029.5C 660.595,1025.93 660.262,1022.26 661,1018.5C 666.463,1006.37 672.796,994.701 680,983.5C 686.973,971.245 691.973,958.245 695,944.5C 695.667,939.167 695.667,933.833 695,928.5C 684.507,940.487 672.007,949.654 657.5,956C 655.527,956.495 653.527,956.662 651.5,956.5C 650.083,941.825 650.25,927.158 652,912.5C 657.396,891.314 663.396,870.314 670,849.5C 682.587,803.712 684.92,757.379 677,710.5C 668.886,744.958 659.219,778.958 648,812.5C 647.807,801.163 648.14,789.83 649,778.5C 651.265,751.855 653.265,725.188 655,698.5C 655.902,680.132 655.569,661.799 654,643.5C 643.657,683.888 636.657,724.888 633,766.5C 632.957,870.839 633.79,975.172 635.5,1079.5C 452.5,1079.5 269.5,1079.5 86.5,1079.5C 86.8023,1002.49 87.9689,925.488 90,848.5C 91.1486,808.459 90.4819,768.459 88,728.5C 85.4855,705.852 80.4855,683.852 73,662.5C 72.6667,714.833 72.3333,767.167 72,819.5C 68.2081,811.366 64.8748,803.033 62,794.5C 55.7197,773.584 49.8864,752.584 44.5,731.5C 36.4368,777.006 39.6035,821.673 54,865.5C 59.0032,878.511 64.0032,891.511 69,904.5C 70.9453,916.51 70.9453,928.51 69,940.5C 68.2747,942.158 67.108,942.658 65.5,942C 48.023,933.528 33.1897,921.694 21,906.5C 21.7385,923.117 26.0719,938.783 34,953.5C 41.6006,966.37 48.934,979.37 56,992.5C 57.8955,998.541 57.8955,1004.54 56,1010.5C 54.2691,1012.62 52.1024,1014.12 49.5,1015C 41.4231,1015.76 33.4231,1015.26 25.5,1013.5C 24.8333,1013.83 24.1667,1014.17 23.5,1014.5C 25.4125,1018.66 27.5791,1022.66 30,1026.5C 40.0236,1035.52 49.6903,1044.86 59,1054.5C 63.934,1062.13 66.1007,1070.47 65.5,1079.5C 43.5,1079.5 21.5,1079.5 -0.5,1079.5C -0.5,960.833 -0.5,842.167 -0.5,723.5C 5.34534,707.814 11.512,692.147 18,676.5C 22.6717,666.485 27.8384,656.819 33.5,647.5C 39.5993,639.566 46.5993,632.399 54.5,626C 64.0058,618.106 74.0058,617.439 84.5,624C 92.3719,632.203 99.8719,640.703 107,649.5C 103.974,640.403 101.307,631.07 99,621.5C 98.1215,616.713 98.4548,612.047 100,607.5C 122.048,646.213 153.548,674.38 194.5,692C 219.65,701.371 245.317,709.038 271.5,715C 293.374,723.517 315.708,730.183 338.5,735C 331.015,728.759 323.348,722.759 315.5,717C 275.698,692.095 234.365,669.761 191.5,650C 152.211,630.208 119.878,602.375 94.5,566.5C 88.7193,557.273 83.7193,547.606 79.5,537.5C 80.0431,537.44 80.3764,537.107 80.5,536.5C 78.3714,531.248 76.5381,525.915 75,520.5C 70.7308,494.667 69.3975,468.667 71,442.5C 76.2935,398.986 87.9601,357.319 106,317.5C 138.17,255.981 182.003,204.148 237.5,162C 235.402,162.984 233.402,162.651 231.5,161C 219.493,149.822 206.493,139.989 192.5,131.5C 192.167,131.667 191.833,131.833 191.5,132C 203.687,140.869 213.187,152.035 220,165.5C 220.684,166.784 220.517,167.951 219.5,169C 216.328,170.752 213.328,172.752 210.5,175C 209.5,175.667 208.5,175.667 207.5,175C 193.208,154.375 175.875,136.708 155.5,122C 142.061,113.13 127.394,107.297 111.5,104.5C 112.975,102.59 114.975,101.424 117.5,101C 126.001,99.7825 134.168,100.949 142,104.5C 158.924,111.211 174.758,119.878 189.5,130.5C 201.981,119.43 214.647,108.596 227.5,98C 258.146,73.1714 292.479,54.8381 330.5,43C 343.306,39.7138 356.306,38.7138 369.5,40C 384.223,42.5974 398.556,46.5974 412.5,52C 455.335,71.0598 493.669,96.5598 527.5,128.5 Z"/></g>
<g><path style="opacity:1" fill="var(--primary-primary90)" d="M 440.5,171.5 C 474.944,183.381 503.944,203.547 527.5,232C 524.52,230.668 521.52,229.001 518.5,227C 494.289,205.951 468.289,187.451 440.5,171.5 Z"/></g>
<g><path style="opacity:1" fill="var(--primary-primary100)" d="M 347.5,177.5 C 391.471,176.55 431.804,188.05 468.5,212C 522.609,248.107 566.442,293.94 600,349.5C 625.701,395.31 635.368,444.31 629,496.5C 618.535,547.269 592.368,587.769 550.5,618C 537.667,626.251 524.667,634.251 511.5,642C 473.712,660.058 436.712,679.392 400.5,700C 384.935,709.953 370.268,721.12 356.5,733.5C 340.455,718.281 323.121,704.781 304.5,693C 267.775,671.636 230.442,651.302 192.5,632C 92.2148,573.827 63.0481,490.327 105,381.5C 138.018,311.144 186.851,254.31 251.5,211C 274.134,196.849 298.467,186.849 324.5,181C 332.279,179.59 339.946,178.424 347.5,177.5 Z"/></g>
<g><path style="opacity:1" fill="var(--primary-primary30)" d="M 526.5,600.5 C 528.982,601.804 530.149,603.804 530,606.5C 528.558,604.609 527.391,602.609 526.5,600.5 Z"/></g>
<g><path style="opacity:1" fill="var(--primary-primary30)" d="M 158.5,571.5 C 158.833,571.5 159.167,571.5 159.5,571.5C 158.121,574.073 156.121,575.573 153.5,576C 155.037,574.293 156.704,572.793 158.5,571.5 Z"/></g>
<g><path style="opacity:1" fill="var(--primary-primary30)" d="M 451.5,538.5 C 483.021,551.407 508.021,572.074 526.5,600.5C 507.361,576.683 484.361,557.683 457.5,543.5C 455.5,541.833 453.5,540.167 451.5,538.5 Z"/></g>
<g><path style="opacity:1" fill="var(--primary-primary30)" d="M 130.5,542.5 C 130.833,542.5 131.167,542.5 131.5,542.5C 128.738,544.725 125.738,546.725 122.5,548.5C 121.304,548.154 121.304,547.654 122.5,547C 125.059,545.223 127.726,543.723 130.5,542.5 Z"/></g>
<g><path style="opacity:1" fill="var(--primary-primary30)" d="M 526.5,518.5 C 534.455,520.374 542.122,523.041 549.5,526.5C 562.811,533.496 575.144,541.996 586.5,552C 572.315,542.224 557.315,533.39 541.5,525.5C 536.585,522.973 531.585,520.64 526.5,518.5 Z"/></g>
<g><path style="opacity:1" fill="var(--primary-primary100)" d="M 540.5,525.5 C 538.087,527.887 535.42,530.054 532.5,532C 534.187,533.913 534.687,536.08 534,538.5C 533.128,536.387 531.628,535.054 529.5,534.5C 524.711,536.728 520.045,539.228 515.5,542C 521.891,544.914 527.558,548.747 532.5,553.5C 518.359,544.429 503.359,536.929 487.5,531C 472.506,526.908 457.506,522.908 442.5,519C 446.833,518.333 451.167,518.333 455.5,519C 460.743,520.478 466.076,521.312 471.5,521.5C 471.927,517.176 472.261,512.842 472.5,508.5C 476.886,507.513 479.22,509.179 479.5,513.5C 478.829,517.176 478.162,520.843 477.5,524.5C 490.914,527.955 503.748,532.955 516,539.5C 524.287,534.943 532.453,530.276 540.5,525.5 Z"/></g>
<g><path style="opacity:1" fill="var(--primary-primary30)" d="M 175.5,519.5 C 176.167,519.5 176.833,519.5 177.5,519.5C 179.925,519.684 179.925,520.351 177.5,521.5C 178.193,522.518 178.859,523.518 179.5,524.5C 177.906,524.08 176.406,523.414 175,522.5C 170.19,524.038 165.69,526.038 161.5,528.5C 150.983,532.092 140.983,536.759 131.5,542.5C 131.167,542.5 130.833,542.5 130.5,542.5C 134.581,538.614 139.248,535.448 144.5,533C 154.893,528.379 165.226,523.879 175.5,519.5 Z"/></g>
<g><path style="opacity:1" fill="var(--primary-primary100)" d="M 195.5,541.5 C 195.062,541.565 194.728,541.399 194.5,541C 196.167,540 197.833,539 199.5,538C 191.34,534.5 183.674,530.167 176.5,525C 171.634,525.584 166.968,527.084 162.5,529.5C 161.893,529.376 161.56,529.043 161.5,528.5C 165.69,526.038 170.19,524.038 175,522.5C 176.406,523.414 177.906,524.08 179.5,524.5C 185.66,529.753 192.66,533.753 200.5,536.5C 210.829,529.338 222.162,524.338 234.5,521.5C 234.334,517.154 234.501,512.821 235,508.5C 237.041,507.577 239.208,507.244 241.5,507.5C 241.423,511.215 241.756,514.881 242.5,518.5C 252.784,516.871 263.117,516.038 273.5,516C 246.34,521.22 220.34,529.72 195.5,541.5 Z"/></g>
<g><path style="opacity:1" fill="var(--primary-primary30)" d="M 570.5,498.5 C 576.808,501.558 583.142,504.724 589.5,508C 581.906,505.298 574.24,502.465 566.5,499.5C 559.506,506.827 552.506,514.161 545.5,521.5C 524.525,511.837 502.525,505.837 479.5,503.5C 479.533,498.273 478.533,493.273 476.5,488.5C 508.541,485.612 539.874,488.945 570.5,498.5 Z"/></g>
<g><path style="opacity:1" fill="var(--primary-primary0)" d="M 568.5,495.5 C 569.058,496.79 570.058,497.623 571.5,498C 571.272,498.399 570.938,498.565 570.5,498.5C 539.874,488.945 508.541,485.612 476.5,488.5C 478.533,493.273 479.533,498.273 479.5,503.5C 502.525,505.837 524.525,511.837 545.5,521.5C 546.823,523.686 548.823,525.186 551.5,526C 550.906,526.464 550.239,526.631 549.5,526.5C 542.122,523.041 534.455,520.374 526.5,518.5C 517.201,514.793 507.534,511.96 497.5,510C 477.275,506.479 456.942,503.646 436.5,501.5C 448.174,500.278 459.841,500.278 471.5,501.5C 471.931,496.793 470.598,492.793 467.5,489.5C 462.167,488.833 456.833,488.167 451.5,487.5C 481.792,481.101 512.125,480.934 542.5,487C 551.453,489.151 560.119,491.985 568.5,495.5 Z"/></g>
<g><path style="opacity:1" fill="var(--primary-primary30)" d="M 145.5,490.5 C 146.5,490.5 147.5,490.5 148.5,490.5C 148.833,491.167 149.167,491.833 149.5,492.5C 137.002,493.999 125.002,497.332 113.5,502.5C 112.304,502.154 112.304,501.654 113.5,501C 123.983,496.561 134.649,493.061 145.5,490.5 Z"/></g>
<g><path style="opacity:1" fill="var(--primary-primary30)" d="M 174.5,516.5 C 172.863,517.218 171.197,517.384 169.5,517C 164.7,511.198 159.533,505.698 154,500.5C 152.223,497.941 150.723,495.274 149.5,492.5C 149.167,491.833 148.833,491.167 148.5,490.5C 156.78,489.071 165.114,487.905 173.5,487C 195.174,486.167 216.841,486.334 238.5,487.5C 235.76,492.125 234.427,497.125 234.5,502.5C 213.839,504.825 193.839,509.492 174.5,516.5 Z"/></g>
<g><path style="opacity:1" fill="var(--primary-primary100)" d="M 177.5,519.5 C 176.833,519.5 176.167,519.5 175.5,519.5C 175.062,519.565 174.728,519.399 174.5,519C 175.167,518.667 175.833,518.333 176.5,518C 175.584,517.722 174.918,517.222 174.5,516.5C 193.839,509.492 213.839,504.825 234.5,502.5C 234.427,497.125 235.76,492.125 238.5,487.5C 216.841,486.334 195.174,486.167 173.5,487C 165.114,487.905 156.78,489.071 148.5,490.5C 147.5,490.5 146.5,490.5 145.5,490.5C 145.062,490.565 144.728,490.399 144.5,490C 146.119,489.764 147.119,488.931 147.5,487.5C 158.249,484.416 169.249,482.582 180.5,482C 207.365,480.656 234.032,482.323 260.5,487C 250.466,485.296 244.466,489.296 242.5,499C 242.833,499.5 243.167,500 243.5,500.5C 250.729,498.991 258.063,498.324 265.5,498.5C 270.5,498.833 275.5,499.167 280.5,499.5C 270.632,501.534 260.632,502.701 250.5,503C 225.593,506.618 201.26,512.118 177.5,519.5 Z"/></g>
<g><path style="opacity:1" fill="var(--primary-primary90)" d="M 588.5,417.5 C 589.817,423.346 589.817,429.346 588.5,435.5C 587.893,435.376 587.56,435.043 587.5,434.5C 588.489,429.025 588.822,423.358 588.5,417.5 Z"/></g>
<g><path style="opacity:1" fill="var(--primary-primary100)" d="M 474.5,270.5 C 474.56,269.957 474.893,269.624 475.5,269.5C 506.35,288.267 533.683,311.267 557.5,338.5C 532.59,312.246 504.924,289.58 474.5,270.5 Z"/></g>
<g><path style="opacity:1" fill="var(--primary-primary30)" d="M 478.5,263.5 C 478.5,263.833 478.5,264.167 478.5,264.5C 476.46,266.177 474.46,267.844 472.5,269.5C 469.606,270.882 467.106,272.882 465,275.5C 460,281.833 455,288.167 450,294.5C 450.732,291.701 452.066,289.034 454,286.5C 459.376,280.628 464.543,274.628 469.5,268.5C 472.339,266.58 475.339,264.913 478.5,263.5 Z"/></g>
<g><path style="opacity:1" fill="var(--primary-primary30)" d="M 469.5,247.5 C 469.5,247.833 469.5,248.167 469.5,248.5C 465.666,252.844 462.333,257.51 459.5,262.5C 447.199,278.023 438.033,295.356 432,314.5C 433.852,303.954 437.519,293.954 443,284.5C 448.39,276.617 453.557,268.617 458.5,260.5C 461.465,255.57 465.131,251.237 469.5,247.5 Z"/></g>
<g><path style="opacity:1" fill="var(--primary-primary30)" d="M 439.5,250.5 C 440.167,250.5 440.5,250.833 440.5,251.5C 445.946,255.556 451.946,258.556 458.5,260.5C 453.557,268.617 448.39,276.617 443,284.5C 437.519,293.954 433.852,303.954 432,314.5C 438.033,295.356 447.199,278.023 459.5,262.5C 463.505,263.498 466.839,265.498 469.5,268.5C 464.543,274.628 459.376,280.628 454,286.5C 452.066,289.034 450.732,291.701 450,294.5C 455,288.167 460,281.833 465,275.5C 467.106,272.882 469.606,270.882 472.5,269.5C 473.167,269.833 473.833,270.167 474.5,270.5C 504.924,289.58 532.59,312.246 557.5,338.5C 565.048,347.242 571.881,356.575 578,366.5C 579.15,368.754 579.484,371.087 579,373.5C 572.803,371.103 566.637,368.936 560.5,367C 576.459,380.079 585.792,396.912 588.5,417.5C 588.822,423.358 588.489,429.025 587.5,434.5C 585.924,431.688 584.09,429.022 582,426.5C 585.662,451.21 581.162,474.21 568.5,495.5C 560.119,491.985 551.453,489.151 542.5,487C 512.125,480.934 481.792,481.101 451.5,487.5C 450.325,487.281 449.325,487.614 448.5,488.5C 454.798,489.496 461.132,489.83 467.5,489.5C 470.598,492.793 471.931,496.793 471.5,501.5C 459.841,500.278 448.174,500.278 436.5,501.5C 456.942,503.646 477.275,506.479 497.5,510C 507.534,511.96 517.201,514.793 526.5,518.5C 531.585,520.64 536.585,522.973 541.5,525.5C 541.167,525.5 540.833,525.5 540.5,525.5C 532.453,530.276 524.287,534.943 516,539.5C 503.748,532.955 490.914,527.955 477.5,524.5C 478.162,520.843 478.829,517.176 479.5,513.5C 479.22,509.179 476.886,507.513 472.5,508.5C 472.261,512.842 471.927,517.176 471.5,521.5C 466.076,521.312 460.743,520.478 455.5,519C 451.167,518.333 446.833,518.333 442.5,519C 457.506,522.908 472.506,526.908 487.5,531C 503.359,536.929 518.359,544.429 532.5,553.5C 542.733,561.557 552.567,570.224 562,579.5C 562.667,580.167 562.667,580.833 562,581.5C 546.576,567.073 529.743,554.573 511.5,544C 503.07,546.031 494.737,548.698 486.5,552C 485.167,552.667 483.833,552.667 482.5,552C 478.12,547.952 473.454,544.285 468.5,541C 471.08,537.842 473.413,534.508 475.5,531C 473.541,530.069 471.541,529.236 469.5,528.5C 466.968,532.211 463.968,535.544 460.5,538.5C 455.015,536.462 449.682,535.128 444.5,534.5C 447.05,535.604 449.383,536.937 451.5,538.5C 453.5,540.167 455.5,541.833 457.5,543.5C 454.85,544.825 452.184,546.158 449.5,547.5C 441.867,543.309 434.2,539.476 426.5,536C 439.963,547.127 453.129,558.627 466,570.5C 475.181,582.025 483.181,594.358 490,607.5C 491.028,609.844 491.694,612.177 492,614.5C 479.933,590.433 463.433,569.933 442.5,553C 427.253,557.086 412.253,556.086 397.5,550C 387.515,545.678 378.182,540.345 369.5,534C 362.28,527.295 359.947,519.129 362.5,509.5C 365.43,508.453 367.93,506.787 370,504.5C 375.678,493.947 383.512,485.447 393.5,479C 395.737,476.97 397.237,474.47 398,471.5C 399.158,461.299 398.324,451.299 395.5,441.5C 395.44,440.957 395.107,440.624 394.5,440.5C 393.526,442.743 393.192,445.076 393.5,447.5C 393.092,454.946 391.926,462.279 390,469.5C 387.313,465.806 383.813,463.306 379.5,462C 365.167,461.333 350.833,461.333 336.5,462C 332.745,463.588 329.745,466.088 327.5,469.5C 326.416,468.335 325.583,467.002 325,465.5C 323.026,456.966 322.026,448.299 322,439.5C 319.047,445.287 317.88,451.454 318.5,458C 318.18,464.022 319.013,469.856 321,475.5C 327,480.833 333,486.167 339,491.5C 342.197,499.197 347.364,505.197 354.5,509.5C 357.745,519.929 355.078,528.429 346.5,535C 330.936,546.285 313.602,552.785 294.5,554.5C 291.167,554.333 287.833,554.167 284.5,554C 279.735,552.594 275.068,551.261 270.5,550C 251.443,563.327 236.443,580.16 225.5,600.5C 224.833,600.5 224.5,600.167 224.5,599.5C 232.306,583.849 242.64,570.016 255.5,558C 266.5,549.667 277.5,541.333 288.5,533C 280.335,535.494 272.502,538.994 265,543.5C 262.278,542.556 259.778,541.223 257.5,539.5C 225.659,554.004 199.825,575.671 180,604.5C 193.975,580.189 213.141,560.689 237.5,546C 249.047,540.393 260.714,535.059 272.5,530C 265.787,530.344 259.287,531.844 253,534.5C 250.034,532.702 247.534,530.369 245.5,527.5C 242.597,526.096 239.93,526.429 237.5,528.5C 239.267,531.77 241.6,534.603 244.5,537C 239.986,540.091 235.653,543.425 231.5,547C 222.376,545.136 213.376,542.802 204.5,540C 188.237,548.773 173.237,559.273 159.5,571.5C 159.167,571.5 158.833,571.5 158.5,571.5C 169.674,559.984 182.008,549.984 195.5,541.5C 220.34,529.72 246.34,521.22 273.5,516C 263.117,516.038 252.784,516.871 242.5,518.5C 241.756,514.881 241.423,511.215 241.5,507.5C 239.208,507.244 237.041,507.577 235,508.5C 234.501,512.821 234.334,517.154 234.5,521.5C 222.162,524.338 210.829,529.338 200.5,536.5C 192.66,533.753 185.66,529.753 179.5,524.5C 178.859,523.518 178.193,522.518 177.5,521.5C 179.925,520.351 179.925,519.684 177.5,519.5C 201.26,512.118 225.593,506.618 250.5,503C 260.632,502.701 270.632,501.534 280.5,499.5C 275.5,499.167 270.5,498.833 265.5,498.5C 258.063,498.324 250.729,498.991 243.5,500.5C 243.167,500 242.833,499.5 242.5,499C 244.466,489.296 250.466,485.296 260.5,487C 234.032,482.323 207.365,480.656 180.5,482C 169.249,482.582 158.249,484.416 147.5,487.5C 142.07,478.212 139.07,468.212 138.5,457.5C 137.93,449.378 140.263,442.211 145.5,436C 141.26,437.558 137.426,440.058 134,443.5C 129.385,424.179 132.052,405.846 142,388.5C 146.542,382.29 152.042,377.124 158.5,373C 151.67,374.584 144.837,376.417 138,378.5C 139.677,368.797 143.343,359.797 149,351.5C 174.462,316.702 205.629,288.202 242.5,266C 240.093,263.817 237.76,261.65 235.5,259.5C 238.891,260.529 241.557,262.529 243.5,265.5C 255.451,277.289 266.951,289.622 278,302.5C 278.667,301.833 278.667,301.167 278,300.5C 273.572,294.649 268.906,288.983 264,283.5C 257.329,277.996 251.163,271.996 245.5,265.5C 248.039,262.81 251.039,260.643 254.5,259C 255.252,258.329 255.586,257.496 255.5,256.5C 255.833,256.5 256.167,256.5 256.5,256.5C 257.167,256.5 257.5,256.833 257.5,257.5C 256.475,257.897 256.308,258.563 257,259.5C 269.791,275.649 280.124,293.316 288,312.5C 287.09,305.44 284.756,298.774 281,292.5C 273.479,280.777 265.979,269.11 258.5,257.5C 264.594,254.462 270.927,251.796 277.5,249.5C 283.031,264.595 287.865,279.929 292,295.5C 292.464,294.906 292.631,294.239 292.5,293.5C 294.962,305.384 297.462,317.384 300,329.5C 300.435,321.48 300.101,313.48 299,305.5C 296.975,297.398 294.642,289.398 292,281.5C 291.31,280.262 290.81,280.262 290.5,281.5C 287.153,271.491 283.487,261.491 279.5,251.5C 280.381,250.029 281.714,249.196 283.5,249C 283.272,248.601 282.938,248.435 282.5,248.5C 285.513,246.247 288.846,245.58 292.5,246.5C 296.6,257.901 299.6,269.568 301.5,281.5C 301.709,282.922 302.209,284.255 303,285.5C 303.796,282.961 303.629,280.628 302.5,278.5C 301.618,267.303 299.618,256.303 296.5,245.5C 296.818,244.353 297.484,243.519 298.5,243C 339.775,232.421 380.775,233.254 421.5,245.5C 418.869,259.415 417.036,273.415 416,287.5C 418.912,273.842 422.746,260.509 427.5,247.5C 430.945,248.972 434.445,250.306 438,251.5C 438.765,251.43 439.265,251.097 439.5,250.5 Z"/></g>
<g><path style="opacity:1" fill="var(--primary-primary30)" d="M 347.5,543.5 C 356.652,542.954 365.652,543.788 374.5,546C 385.833,551.333 397.167,556.667 408.5,562C 411.393,563.149 414.393,563.649 417.5,563.5C 417.392,565.783 416.559,567.783 415,569.5C 406.814,578.334 396.981,584.168 385.5,587C 386.257,585.488 387.257,584.154 388.5,583C 388.167,582.833 387.833,582.667 387.5,582.5C 366.896,596.086 346.562,595.753 326.5,581.5C 326.674,583.331 327.674,585.165 329.5,587C 321.445,584.973 314.112,581.306 307.5,576C 303.607,572.61 300.273,568.777 297.5,564.5C 314.211,557.474 330.878,550.474 347.5,543.5 Z"/></g>
<g><path style="opacity:1" fill="var(--primary-primary100)" d="M 430.5,519.5 C 434.219,519.002 437.553,519.836 440.5,522C 436.348,524.271 433.015,523.438 430.5,519.5 Z"/></g>
<g><path style="opacity:1" fill="var(--primary-primary100)" d="M 410.5,518.5 C 413.397,518.125 416.063,518.625 418.5,520C 416.386,521.518 414.053,521.851 411.5,521C 410.748,520.329 410.414,519.496 410.5,518.5 Z"/></g>
<g><path style="opacity:1" fill="var(--primary-primary100)" d="M 279.5,516.5 C 288.704,517.376 288.537,518.71 279,520.5C 278.167,520.167 277.333,519.833 276.5,519.5C 277.34,518.265 278.34,517.265 279.5,516.5 Z"/></g>
<g><path style="opacity:1" fill="var(--primary-primary100)" d="M 301.5,516.5 C 303.924,516.192 306.257,516.526 308.5,517.5C 305.915,520.651 302.915,521.151 299.5,519C 300.381,518.292 301.047,517.458 301.5,516.5 Z"/></g>
<g><path style="opacity:1" fill="var(--primary-primary100)" d="M 423.5,500.5 C 425.75,500.181 427.75,500.681 429.5,502C 426.28,505.645 424.28,505.145 423.5,500.5 Z"/></g>
<g><path style="opacity:1" fill="var(--primary-primary100)" d="M 292.5,498.5 C 294.912,498.694 295.912,500.027 295.5,502.5C 293.833,502.5 292.167,502.5 290.5,502.5C 290.527,500.801 291.194,499.467 292.5,498.5 Z"/></g>
<g><path style="opacity:1" fill="var(--primary-primary30)" d="M 451.5,487.5 C 456.833,488.167 462.167,488.833 467.5,489.5C 461.132,489.83 454.798,489.496 448.5,488.5C 449.325,487.614 450.325,487.281 451.5,487.5 Z"/></g>
<g><path style="opacity:1" fill="var(--primary-primary90)" d="M 337.5,465.5 C 351.837,465.333 366.171,465.5 380.5,466C 387.645,467.912 388.978,471.579 384.5,477C 372.73,476.113 367.897,481.613 370,493.5C 369.495,496.517 367.995,498.851 365.5,500.5C 364.522,500.023 363.689,499.357 363,498.5C 362.216,492.963 360.882,487.629 359,482.5C 358.092,487.853 357.092,493.187 356,498.5C 352.773,501.399 350.44,500.732 349,496.5C 348.552,491.47 347.886,486.47 347,481.5C 346.167,480.667 345.333,479.833 344.5,479C 340.5,478.667 336.5,478.333 332.5,478C 329.278,476.01 328.778,473.51 331,470.5C 332.805,468.174 334.972,466.508 337.5,465.5 Z"/></g>
<g><path style="opacity:1" fill="var(--primary-primary30)" d="M 395.5,441.5 C 394.833,443.5 394.167,445.5 393.5,447.5C 393.192,445.076 393.526,442.743 394.5,440.5C 395.107,440.624 395.44,440.957 395.5,441.5 Z"/></g>
<g><path style="opacity:1" fill="var(--primary-primary30)" d="M 307.5,414.5 C 308.654,420.987 308.821,427.654 308,434.5C 307.648,432.753 307.148,431.086 306.5,429.5C 307.487,424.695 307.821,419.695 307.5,414.5 Z"/></g>
<g><path style="opacity:1" fill="var(--primary-primary30)" d="M 399.5,385.5 C 399.232,387.099 399.566,388.432 400.5,389.5C 399.91,390.766 399.41,392.099 399,393.5C 398.199,390.633 398.366,387.966 399.5,385.5 Z"/></g>
<g><path style="opacity:1" fill="var(--primary-primary100)" d="M 400.5,389.5 C 399.566,388.432 399.232,387.099 399.5,385.5C 399.701,374.099 403.535,364.099 411,355.5C 409.082,360.025 407.082,364.692 405,369.5C 402.552,375.957 401.052,382.624 400.5,389.5 Z"/></g>
<g><path style="opacity:1" fill="var(--primary-primary100)" d="M 303.5,351.5 C 313.66,362.835 318.493,376.168 318,391.5C 315.433,377.296 310.6,363.962 303.5,351.5 Z"/></g>
<g><path style="opacity:1" fill="var(--primary-primary100)" d="M 461.5,330.5 C 475.936,329.183 489.936,331.016 503.5,336C 512.454,340.143 521.12,344.81 529.5,350C 524.177,350.499 518.844,350.666 513.5,350.5C 519.026,369.491 516.859,387.491 507,404.5C 488.653,425.276 466.153,431.442 439.5,423C 431.526,419.764 424.692,414.931 419,408.5C 415.28,417.418 415.78,426.085 420.5,434.5C 420.333,434.833 420.167,435.167 420,435.5C 416.016,432.18 413.016,428.18 411,423.5C 409.363,426.717 408.03,430.05 407,433.5C 407.178,412.432 410.178,391.766 416,371.5C 424.151,349.84 439.318,336.173 461.5,330.5 Z"/></g>
<g><path style="opacity:1" fill="var(--primary-primary30)" d="M 481.5,350.5 C 491.782,350.084 499.282,354.751 504,364.5C 505.488,369.784 506.655,375.117 507.5,380.5C 503.486,402.348 490.486,415.515 468.5,420C 453.067,422.032 440.233,417.199 430,405.5C 427.682,402.531 426.182,399.198 425.5,395.5C 424.725,386.857 425.892,378.524 429,370.5C 430.617,368.237 432.45,366.237 434.5,364.5C 433.299,369.837 433.299,375.17 434.5,380.5C 434.125,382.459 433.459,384.293 432.5,386C 433.938,386.219 435.271,386.719 436.5,387.5C 446.253,406.807 460.586,411.307 479.5,401C 490.082,392.749 493.749,382.249 490.5,369.5C 489.89,361.95 486.89,355.617 481.5,350.5 Z"/></g>
<g><path style="opacity:1" fill="var(--primary-primary30)" d="M 434.5,364.5 C 435.404,365.209 435.737,366.209 435.5,367.5C 433.503,385.697 440.837,398.197 457.5,405C 473.65,406.001 484.483,398.834 490,383.5C 490.499,378.845 490.666,374.179 490.5,369.5C 493.749,382.249 490.082,392.749 479.5,401C 460.586,411.307 446.253,406.807 436.5,387.5C 435.271,386.719 433.938,386.219 432.5,386C 433.459,384.293 434.125,382.459 434.5,380.5C 433.299,375.17 433.299,369.837 434.5,364.5 Z"/></g>
<g><path style="opacity:1" fill="var(--primary-primary100)" d="M 307.5,414.5 C 307.821,419.695 307.487,424.695 306.5,429.5C 305.849,420.733 304.015,420.4 301,428.5C 299,430.5 297,432.5 295,434.5C 295.757,431.216 296.757,427.883 298,424.5C 298.667,419.833 298.667,415.167 298,410.5C 297.692,409.692 297.192,409.025 296.5,408.5C 272.771,429.755 247.438,431.922 220.5,415C 208.887,406.035 202.387,394.201 201,379.5C 199.375,368.361 200.875,357.694 205.5,347.5C 204.667,347.167 203.833,346.833 203,346.5C 198.125,347.611 193.292,348.444 188.5,349C 201.245,339.962 215.245,333.629 230.5,330C 271.875,326.944 296.708,345.778 305,386.5C 306.634,395.767 307.467,405.1 307.5,414.5 Z"/></g>
<g><path style="opacity:1" fill="var(--primary-primary30)" d="M 237.5,349.5 C 223.234,365.683 222.9,382.183 236.5,399C 251.194,408.847 264.36,407.014 276,393.5C 280.312,386.068 282.478,378.068 282.5,369.5C 285.661,372.475 287.828,376.142 289,380.5C 290.124,389.094 288.457,397.094 284,404.5C 280.864,407.958 277.697,411.292 274.5,414.5C 257.329,423.605 240.995,422.105 225.5,410C 221.317,406.441 217.984,402.275 215.5,397.5C 215.611,396.883 215.944,396.383 216.5,396C 209.393,382.763 209.893,369.93 218,357.5C 221.943,353.779 226.443,350.945 231.5,349C 233.712,348.211 235.712,348.378 237.5,349.5 Z"/></g>
<g><path style="opacity:1" fill="var(--primary-primary30)" d="M 274.5,414.5 C 277.697,411.292 280.864,407.958 284,404.5C 288.457,397.094 290.124,389.094 289,380.5C 287.828,376.142 285.661,372.475 282.5,369.5C 278.28,350.727 266.613,342.227 247.5,344C 243.789,345.227 240.455,347.06 237.5,349.5C 235.712,348.378 233.712,348.211 231.5,349C 226.443,350.945 221.943,353.779 218,357.5C 209.893,369.93 209.393,382.763 216.5,396C 215.944,396.383 215.611,396.883 215.5,397.5C 204.015,378.082 206.681,360.915 223.5,346C 244.922,335.311 264.088,338.478 281,355.5C 292.45,368.961 295.117,383.961 289,400.5C 285.598,406.737 280.764,411.404 274.5,414.5 Z"/></g>
<g><path style="opacity:1" fill="var(--primary-primary30)" d="M 507.5,380.5 C 506.655,375.117 505.488,369.784 504,364.5C 499.282,354.751 491.782,350.084 481.5,350.5C 467.41,339.073 454.243,340.073 442,353.5C 438.967,357.892 436.8,362.559 435.5,367.5C 435.737,366.209 435.404,365.209 434.5,364.5C 432.45,366.237 430.617,368.237 429,370.5C 425.892,378.524 424.725,386.857 425.5,395.5C 420.74,372.183 429.073,355.016 450.5,344C 466.213,338.275 481.213,339.608 495.5,348C 505.984,356.633 509.984,367.466 507.5,380.5 Z"/></g>
<g><path style="opacity:1" fill="var(--primary-primary100)" d="M 481.5,350.5 C 486.89,355.617 489.89,361.95 490.5,369.5C 490.666,374.179 490.499,378.845 490,383.5C 484.483,398.834 473.65,406.001 457.5,405C 440.837,398.197 433.503,385.697 435.5,367.5C 436.8,362.559 438.967,357.892 442,353.5C 454.243,340.073 467.41,339.073 481.5,350.5 Z"/></g>
<g><path style="opacity:1" fill="var(--primary-primary30)" d="M 470.5,351.5 C 476.67,352.162 479.17,355.495 478,361.5C 472.091,367.481 467.924,366.481 465.5,358.5C 466.014,355.323 467.681,352.989 470.5,351.5 Z"/></g>
<g><path style="opacity:1" fill="var(--primary-primary100)" d="M 282.5,369.5 C 282.478,378.068 280.312,386.068 276,393.5C 264.36,407.014 251.194,408.847 236.5,399C 222.9,382.183 223.234,365.683 237.5,349.5C 240.455,347.06 243.789,345.227 247.5,344C 266.613,342.227 278.28,350.727 282.5,369.5 Z"/></g>
<g><path style="opacity:1" fill="var(--primary-primary30)" d="M 261.5,351.5 C 269.558,351.373 272.391,355.04 270,362.5C 265.291,366.769 260.958,366.436 257,361.5C 255.571,356.783 257.071,353.45 261.5,351.5 Z"/></g>
<g><path style="opacity:1" fill="var(--primary-primary30)" d="M 260.5,353.5 C 266.771,351.797 269.771,354.131 269.5,360.5C 265.71,360.008 265.044,360.841 267.5,363C 258.751,364.426 256.418,361.259 260.5,353.5 Z"/></g>
<g><path style="opacity:1" fill="var(--primary-primary100)" d="M 468.5,299.5 C 469.873,299.343 471.207,299.51 472.5,300C 456.633,305.186 443.133,314.019 432,326.5C 433.783,320.673 437.283,315.84 442.5,312C 450.598,306.45 459.264,302.283 468.5,299.5 Z"/></g>
<g><path style="opacity:1" fill="var(--primary-primary100)" d="M 427.5,277.5 C 426.34,295.314 423.173,312.98 418,330.5C 419.003,312.487 422.169,294.82 427.5,277.5 Z"/></g>
<g><path style="opacity:1" fill="var(--primary-primary100)" d="M 292.5,293.5 C 292.47,289.382 291.803,285.382 290.5,281.5C 290.81,280.262 291.31,280.262 292,281.5C 294.642,289.398 296.975,297.398 299,305.5C 300.101,313.48 300.435,321.48 300,329.5C 297.462,317.384 294.962,305.384 292.5,293.5 Z"/></g>
<g><path style="opacity:1" fill="var(--primary-primary100)" d="M 251.5,300.5 C 251.842,299.662 252.508,299.328 253.5,299.5C 267.351,302.499 278.185,309.833 286,321.5C 286.982,322.759 287.315,324.092 287,325.5C 277.464,313.78 265.63,305.447 251.5,300.5 Z"/></g>
<g><path style="opacity:1" fill="var(--primary-primary30)" d="M 253.5,299.5 C 252.508,299.328 251.842,299.662 251.5,300.5C 249.287,300.152 247.287,299.319 245.5,298C 248.419,297.567 251.086,298.067 253.5,299.5 Z"/></g>
<g><path style="opacity:1" fill="var(--primary-primary30)" d="M 243.5,265.5 C 244.167,265.5 244.833,265.5 245.5,265.5C 251.163,271.996 257.329,277.996 264,283.5C 268.906,288.983 273.572,294.649 278,300.5C 278.667,301.167 278.667,301.833 278,302.5C 266.951,289.622 255.451,277.289 243.5,265.5 Z"/></g>
<g><path style="opacity:1" fill="var(--primary-primary30)" d="M 302.5,278.5 C 303.629,280.628 303.796,282.961 303,285.5C 302.209,284.255 301.709,282.922 301.5,281.5C 302.404,280.791 302.737,279.791 302.5,278.5 Z"/></g>
<g><path style="opacity:1" fill="var(--primary-primary30)" d="M 257.5,257.5 C 257.833,257.5 258.167,257.5 258.5,257.5C 265.979,269.11 273.479,280.777 281,292.5C 284.756,298.774 287.09,305.44 288,312.5C 280.124,293.316 269.791,275.649 257,259.5C 256.308,258.563 256.475,257.897 257.5,257.5 Z"/></g>
<g><path style="opacity:1" fill="var(--primary-primary30)" d="M 277.5,248.5 C 278.973,249.071 280.64,249.071 282.5,248.5C 282.938,248.435 283.272,248.601 283.5,249C 281.714,249.196 280.381,250.029 279.5,251.5C 283.487,261.491 287.153,271.491 290.5,281.5C 291.803,285.382 292.47,289.382 292.5,293.5C 292.631,294.239 292.464,294.906 292,295.5C 287.865,279.929 283.031,264.595 277.5,249.5C 277.5,249.167 277.5,248.833 277.5,248.5 Z"/></g>
<g><path style="opacity:1" fill="var(--primary-primary30)" d="M 478.5,264.5 C 478.5,264.167 478.5,263.833 478.5,263.5C 482.3,259.938 486.634,257.438 491.5,256C 487.138,258.844 482.805,261.677 478.5,264.5 Z"/></g>
<g><path style="opacity:1" fill="var(--primary-primary30)" d="M 235.5,259.5 C 231.798,257.976 228.464,255.81 225.5,253C 226.908,252.685 228.241,253.018 229.5,254C 231.763,255.617 233.763,257.45 235.5,259.5 Z"/></g>
<g><path style="opacity:1" fill="var(--primary-primary30)" d="M 256.5,256.5 C 256.167,256.5 255.833,256.5 255.5,256.5C 252.264,251.723 248.764,247.056 245,242.5C 244.333,241.833 244.333,241.167 245,240.5C 249.588,245.363 253.421,250.696 256.5,256.5 Z"/></g>
<g><path style="opacity:1" fill="var(--primary-primary30)" d="M 469.5,248.5 C 469.5,248.167 469.5,247.833 469.5,247.5C 470.835,245.097 472.502,243.764 474.5,243.5C 473.145,245.521 471.479,247.188 469.5,248.5 Z"/></g>
<g><path style="opacity:1" fill="var(--primary-primary30)" d="M 440.5,251.5 C 440.5,250.833 440.167,250.5 439.5,250.5C 442.571,243.453 445.738,236.453 449,229.5C 446.86,237.084 444.027,244.417 440.5,251.5 Z"/></g>
<g><path style="opacity:1" fill="var(--primary-primary30)" d="M 277.5,248.5 C 273.916,242.578 271.416,236.245 270,229.5C 273.391,235.513 275.891,241.846 277.5,248.5 Z"/></g>
<g><path style="opacity:1" fill="var(--primary-primary100)" d="M 342.5,144.5 C 344.527,144.338 346.527,144.505 348.5,145C 311.339,156.082 277.006,172.749 245.5,195C 244.241,195.982 242.908,196.315 241.5,196C 270.085,168.861 303.752,151.694 342.5,144.5 Z"/></g>
<g><path style="opacity:1" fill="var(--primary-primary100)" d="M 527.5,128.5 C 527.833,129.167 528.167,129.833 528.5,130.5C 514.102,140.898 502.102,153.565 492.5,168.5C 489.437,166.975 486.77,164.975 484.5,162.5C 497.726,149.589 512.06,138.256 527.5,128.5 Z"/></g>
<g><path style="opacity:1" fill="var(--primary-primary30)" d="M 224.5,599.5 C 224.5,600.167 224.833,600.5 225.5,600.5C 223.267,605.299 220.767,609.965 218,614.5C 219.053,609.056 221.22,604.056 224.5,599.5 Z"/></g>
<g><path style="opacity:1" fill="var(--primary-primary100)" d="M 674.5,1079.5 C 661.5,1079.5 648.5,1079.5 635.5,1079.5C 633.79,975.172 632.957,870.839 633,766.5C 636.657,724.888 643.657,683.888 654,643.5C 655.569,661.799 655.902,680.132 655,698.5C 653.265,725.188 651.265,751.855 649,778.5C 648.14,789.83 647.807,801.163 648,812.5C 659.219,778.958 668.886,744.958 677,710.5C 684.92,757.379 682.587,803.712 670,849.5C 663.396,870.314 657.396,891.314 652,912.5C 650.25,927.158 650.083,941.825 651.5,956.5C 653.527,956.662 655.527,956.495 657.5,956C 672.007,949.654 684.507,940.487 695,928.5C 695.667,933.833 695.667,939.167 695,944.5C 691.973,958.245 686.973,971.245 680,983.5C 672.796,994.701 666.463,1006.37 661,1018.5C 660.262,1022.26 660.595,1025.93 662,1029.5C 668.634,1035.65 675.634,1041.31 683,1046.5C 683.658,1050.57 683.325,1054.57 682,1058.5C 678.997,1065.34 676.497,1072.34 674.5,1079.5 Z"/></g>
<g><path style="opacity:1" fill="var(--primary-primary100)" d="M 86.5,1079.5 C 79.5,1079.5 72.5,1079.5 65.5,1079.5C 66.1007,1070.47 63.934,1062.13 59,1054.5C 49.6903,1044.86 40.0236,1035.52 30,1026.5C 27.5791,1022.66 25.4125,1018.66 23.5,1014.5C 24.1667,1014.17 24.8333,1013.83 25.5,1013.5C 33.4231,1015.26 41.4231,1015.76 49.5,1015C 52.1024,1014.12 54.2691,1012.62 56,1010.5C 57.8955,1004.54 57.8955,998.541 56,992.5C 48.934,979.37 41.6006,966.37 34,953.5C 26.0719,938.783 21.7385,923.117 21,906.5C 33.1897,921.694 48.023,933.528 65.5,942C 67.108,942.658 68.2747,942.158 69,940.5C 70.9453,928.51 70.9453,916.51 69,904.5C 64.0032,891.511 59.0032,878.511 54,865.5C 39.6035,821.673 36.4368,777.006 44.5,731.5C 49.8864,752.584 55.7197,773.584 62,794.5C 64.8748,803.033 68.2081,811.366 72,819.5C 72.3333,767.167 72.6667,714.833 73,662.5C 80.4855,683.852 85.4855,705.852 88,728.5C 90.4819,768.459 91.1486,808.459 90,848.5C 87.9689,925.488 86.8023,1002.49 86.5,1079.5 Z"/></g>
<g><path style="opacity:1" fill="var(--primary-primary30)" d="M 329.5,799.5 C 338.342,798.178 347.342,798.178 356.5,799.5C 356.376,800.107 356.043,800.44 355.5,800.5C 347.016,799.507 338.349,799.174 329.5,799.5 Z"/></g>
<g><path style="opacity:1" fill="var(--primary-primary30)" d="M 518.5,799.5 C 527.342,798.178 536.342,798.178 545.5,799.5C 545.376,800.107 545.043,800.44 544.5,800.5C 536.016,799.507 527.349,799.174 518.5,799.5 Z"/></g>
<g><path style="opacity:1" fill="var(--primary-primary30)" d="M 442.5,824.5 C 441.242,846.011 441.242,867.678 442.5,889.5C 436.5,889.5 430.5,889.5 424.5,889.5C 424.66,887.801 424.494,886.134 424,884.5C 423.536,885.094 423.369,885.761 423.5,886.5C 422.834,882.979 422.167,879.313 421.5,875.5C 410.48,892.18 395.48,897.013 376.5,890C 365.48,881.959 361.314,871.125 364,857.5C 368.056,845.872 376.223,839.039 388.5,837C 399.161,836.5 409.828,836.333 420.5,836.5C 421.468,834.393 421.802,832.059 421.5,829.5C 421.313,822.813 417.979,818.646 411.5,817C 406.167,816.333 400.833,816.333 395.5,817C 387.854,818.938 380.187,820.771 372.5,822.5C 372.334,816.158 372.5,809.825 373,803.5C 376.202,801.428 379.702,799.928 383.5,799C 395.441,796.203 407.441,795.869 419.5,798C 434.16,800.824 441.827,809.657 442.5,824.5 Z"/></g>
<g><path style="opacity:1" fill="var(--primary-primary30)" d="M 484.5,799.5 C 485.331,812.994 485.831,826.661 486,840.5C 497.323,827.167 508.157,813.5 518.5,799.5C 527.349,799.174 536.016,799.507 544.5,800.5C 532.481,813.853 520.815,827.52 509.5,841.5C 521.976,857.81 534.643,873.977 547.5,890C 537.833,890.667 528.167,890.667 518.5,890C 515.683,885.357 512.349,881.19 508.5,877.5C 501.634,866.454 494.134,855.787 486,845.5C 485.5,860.496 485.333,875.496 485.5,890.5C 485.167,890.5 484.833,890.5 484.5,890.5C 484.667,875.496 484.5,860.496 484,845.5C 483.5,860.163 483.333,874.83 483.5,889.5C 476.833,889.5 470.167,889.5 463.5,889.5C 463.5,859.833 463.5,830.167 463.5,800.5C 470.167,800.5 476.833,800.5 483.5,800.5C 483.333,814.171 483.5,827.837 484,841.5C 484.5,827.504 484.667,813.504 484.5,799.5 Z"/></g>
<g><path style="opacity:1" fill="var(--primary-primary30)" d="M 295.5,799.5 C 296.167,812.833 296.833,826.167 297.5,839.5C 297.158,840.338 296.492,840.672 295.5,840.5C 295.5,826.833 295.5,813.167 295.5,799.5 Z"/></g>
<g><path style="opacity:1" fill="var(--primary-primary100)" d="M 421.5,829.5 C 421.802,832.059 421.468,834.393 420.5,836.5C 412.01,835.67 403.343,835.17 394.5,835C 403.16,834.5 411.827,834.334 420.5,834.5C 420.216,832.585 420.549,830.919 421.5,829.5 Z"/></g>
<g><path style="opacity:1" fill="var(--primary-primary30)" d="M 205.5,797.5 C 232.986,795.18 250.486,807.18 258,833.5C 261.591,874.238 243.091,893.738 202.5,892C 179.526,884.995 167.859,869.328 167.5,845C 168.377,819.327 181.044,803.494 205.5,797.5 Z"/></g>
<g><path style="opacity:1" fill="var(--primary-primary90)" d="M 206.5,816.5 C 223.063,814.905 232.896,822.238 236,838.5C 238.105,850.681 234.938,861.181 226.5,870C 208.289,878.48 196.455,872.98 191,853.5C 187.486,837.226 192.653,824.893 206.5,816.5 Z"/></g>
<g><path style="opacity:1" fill="var(--primary-primary30)" d="M 273.5,799.5 C 280.833,799.5 288.167,799.5 295.5,799.5C 295.5,813.167 295.5,826.833 295.5,840.5C 294.504,827.344 294.171,814.01 294.5,800.5C 287.833,800.5 281.167,800.5 274.5,800.5C 274.5,830.167 274.5,859.833 274.5,889.5C 281.167,889.5 287.833,889.5 294.5,889.5C 294.171,874.657 294.504,859.99 295.5,845.5C 295.5,860.5 295.5,875.5 295.5,890.5C 288.167,890.5 280.833,890.5 273.5,890.5C 273.5,860.167 273.5,829.833 273.5,799.5 Z"/></g>
<g><path style="opacity:1" fill="var(--primary-primary30)" d="M 273.5,799.5 C 273.5,829.833 273.5,860.167 273.5,890.5C 280.833,890.5 288.167,890.5 295.5,890.5C 295.5,890.833 295.5,891.167 295.5,891.5C 287.833,891.5 280.167,891.5 272.5,891.5C 272.169,860.662 272.502,829.995 273.5,799.5 Z"/></g>
<g><path style="opacity:1" fill="var(--primary-primary30)" d="M 442.5,824.5 C 442.833,824.5 443.167,824.5 443.5,824.5C 443.5,843.5 443.5,862.5 443.5,881.5C 443.5,884.5 443.5,887.5 443.5,890.5C 436.833,890.5 430.167,890.5 423.5,890.5C 423.5,889.167 423.5,887.833 423.5,886.5C 423.369,885.761 423.536,885.094 424,884.5C 424.494,886.134 424.66,887.801 424.5,889.5C 430.5,889.5 436.5,889.5 442.5,889.5C 441.242,867.678 441.242,846.011 442.5,824.5 Z"/></g>
<g><path style="opacity:1" fill="var(--primary-primary30)" d="M 329.5,799.5 C 338.349,799.174 347.016,799.507 355.5,800.5C 343.386,813.893 331.386,827.393 319.5,841C 332.058,856.717 344.391,872.55 356.5,888.5C 346.557,889.764 336.89,889.764 327.5,888.5C 321.833,881.167 316.167,873.833 310.5,866.5C 306.583,859.91 302.25,853.577 297.5,847.5C 297.167,846.5 296.5,845.833 295.5,845.5C 294.504,859.99 294.171,874.657 294.5,889.5C 287.833,889.5 281.167,889.5 274.5,889.5C 274.5,859.833 274.5,830.167 274.5,800.5C 281.167,800.5 287.833,800.5 294.5,800.5C 294.171,814.01 294.504,827.344 295.5,840.5C 296.492,840.672 297.158,840.338 297.5,839.5C 307.817,825.854 318.484,812.52 329.5,799.5 Z"/></g>
<g><path style="opacity:1" fill="var(--primary-primary100)" d="M 508.5,877.5 C 501.111,868.416 493.945,859.082 487,849.5C 486.831,863.339 486.331,877.006 485.5,890.5C 485.333,875.496 485.5,860.496 486,845.5C 494.134,855.787 501.634,866.454 508.5,877.5 Z"/></g>
<g><path style="opacity:1" fill="var(--primary-primary90)" d="M 400.5,849.5 C 407.5,849.5 414.5,849.5 421.5,849.5C 420.076,869.19 409.743,877.357 390.5,874C 384.777,868.644 383.943,862.477 388,855.5C 391.556,851.97 395.722,849.97 400.5,849.5 Z"/></g>
<g><path style="opacity:1" fill="var(--primary-primary100)" d="M 297.5,847.5 C 302.25,853.577 306.583,859.91 310.5,866.5C 306.112,861.417 301.945,856.084 298,850.5C 297.831,864.339 297.331,878.006 296.5,891.5C 296.171,876.657 296.504,861.99 297.5,847.5 Z"/></g>
<g><path style="opacity:1" fill="var(--primary-primary100)" d="M 444.5,890.5 C 444.81,887.287 444.477,884.287 443.5,881.5C 443.5,862.5 443.5,843.5 443.5,824.5C 444.308,842.598 444.975,861.432 445.5,881C 445.498,884.352 445.165,887.518 444.5,890.5 Z"/></g>
<g><path style="opacity:1" fill="var(--primary-primary30)" d="M 484.5,799.5 C 484.667,813.504 484.5,827.504 484,841.5C 483.5,827.837 483.333,814.171 483.5,800.5C 476.833,800.5 470.167,800.5 463.5,800.5C 463.5,830.167 463.5,859.833 463.5,889.5C 470.167,889.5 476.833,889.5 483.5,889.5C 483.333,874.83 483.5,860.163 484,845.5C 484.5,860.496 484.667,875.496 484.5,890.5C 477.167,890.5 469.833,890.5 462.5,890.5C 462.5,860.167 462.5,829.833 462.5,799.5C 469.833,799.5 477.167,799.5 484.5,799.5 Z"/></g>
<g><path style="opacity:1" fill="var(--primary-primary90)" d="M 295.5,845.5 C 296.5,845.833 297.167,846.5 297.5,847.5C 296.504,861.99 296.171,876.657 296.5,891.5C 296.167,891.5 295.833,891.5 295.5,891.5C 295.5,891.167 295.5,890.833 295.5,890.5C 295.5,875.5 295.5,860.5 295.5,845.5 Z"/></g>
<g><path style="opacity:1" fill="var(--primary-primary30)" d="M 356.5,888.5 C 357.167,888.833 357.833,889.167 358.5,889.5C 348.681,890.494 338.681,890.827 328.5,890.5C 328.167,889.833 327.833,889.167 327.5,888.5C 336.89,889.764 346.557,889.764 356.5,888.5 Z"/></g>
<g><path style="opacity:1" fill="var(--primary-primary90)" d="M 358.5,889.5 C 359.043,889.56 359.376,889.893 359.5,890.5C 349.007,891.823 338.674,891.823 328.5,890.5C 338.681,890.827 348.681,890.494 358.5,889.5 Z"/></g>
<g><path style="opacity:1" fill="var(--primary-primary30)" d="M 443.5,881.5 C 444.477,884.287 444.81,887.287 444.5,890.5C 437.5,891.833 430.5,891.833 423.5,890.5C 430.167,890.5 436.833,890.5 443.5,890.5C 443.5,887.5 443.5,884.5 443.5,881.5 Z"/></g>
</svg>
