<svg width="204" height="49" viewBox="0 0 204 49" fill="none" xmlns="http://www.w3.org/2000/svg">
<path d="M22 48.0244C21.853 48.0244 21.706 47.991 21.57 47.9232L0.57 37.4995C0.222 37.3265 0 36.9606 0 36.5582V4.24465C0 3.88711 0.176 3.5546 0.466 3.3628C0.755 3.17204 1.12 3.15015 1.43 3.30338L22 13.5134L42.57 3.30234C42.88 3.15015 43.243 3.171 43.533 3.3628C43.824 3.5546 44 3.88711 44 4.24465V36.5582C44 36.9606 43.778 37.3265 43.43 37.4995L22.43 47.9232C22.294 47.991 22.147 48.0244 22 48.0244ZM2 35.8995L22 45.827L42 35.8995V5.89577L22.43 15.6097C22.159 15.7441 21.842 15.7441 21.571 15.6097L2 5.89577V35.8995Z" fill="currentColor"/>
<path d="M22 10.6605L4.567 2.00771C4.068 1.75963 3.857 1.13733 4.094 0.618228C4.332 0.0980835 4.928 -0.119773 5.427 0.124143L22 8.3516L38.573 0.124143C39.073 -0.119773 39.668 0.0980835 39.906 0.618228C40.143 1.13733 39.932 1.75963 39.433 2.00771L22 10.6605Z" fill="currentColor"/>
<path d="M23 14.6684H21V46.982H23V14.6684Z" fill="currentColor"/>
<path d="M77.248 39.3324C74.4027 39.3324 71.7773 38.6724 69.372 37.3524C66.996 36.003 65.104 34.1404 63.696 31.7644C62.3173 29.359 61.628 26.6604 61.628 23.6684C61.628 20.6764 62.3173 17.9924 63.696 15.6164C65.104 13.2404 66.996 11.3924 69.372 10.0724C71.7773 8.72302 74.4027 8.04835 77.248 8.04835C80.1227 8.04835 82.748 8.72302 85.124 10.0724C87.5293 11.3924 89.4213 13.2404 90.8 15.6164C92.1787 17.9924 92.868 20.6764 92.868 23.6684C92.868 26.6604 92.1787 29.359 90.8 31.7644C89.4213 34.1404 87.5293 36.003 85.124 37.3524C82.748 38.6724 80.1227 39.3324 77.248 39.3324ZM77.248 34.9764C79.272 34.9764 81.076 34.5217 82.66 33.6124C84.244 32.6737 85.476 31.3537 86.356 29.6524C87.2653 27.9217 87.72 25.927 87.72 23.6684C87.72 21.4097 87.2653 19.4297 86.356 17.7284C85.476 16.027 84.244 14.7217 82.66 13.8124C81.076 12.903 79.272 12.4484 77.248 12.4484C75.224 12.4484 73.42 12.903 71.836 13.8124C70.252 14.7217 69.0053 16.027 68.096 17.7284C67.216 19.4297 66.776 21.4097 66.776 23.6684C66.776 25.927 67.216 27.9217 68.096 29.6524C69.0053 31.3537 70.252 32.6737 71.836 33.6124C73.42 34.5217 75.224 34.9764 77.248 34.9764ZM116.24 32.7764H103.436L101.236 39.0244H95.9999L106.956 8.40035H112.764L123.72 39.0244H118.44L116.24 32.7764ZM114.832 28.6844L109.86 14.4724L104.844 28.6844H114.832ZM133.5 12.4924V21.4684H144.06V25.5604H133.5V34.9324H145.38V39.0244H128.484V8.40035H145.38V12.4924H133.5ZM149.886 26.7924C149.886 24.3577 150.384 22.2017 151.382 20.3244C152.408 18.447 153.787 16.995 155.518 15.9684C157.278 14.9124 159.228 14.3844 161.37 14.3844C162.954 14.3844 164.508 14.7364 166.034 15.4404C167.588 16.115 168.82 17.0244 169.73 18.1684V6.46435H174.79V39.0244H169.73V35.3724C168.908 36.5457 167.764 37.5137 166.298 38.2764C164.86 39.039 163.203 39.4204 161.326 39.4204C159.214 39.4204 157.278 38.8924 155.518 37.8364C153.787 36.751 152.408 35.255 151.382 33.3484C150.384 31.4124 149.886 29.227 149.886 26.7924ZM169.73 26.8804C169.73 25.2084 169.378 23.7564 168.674 22.5244C167.999 21.2924 167.104 20.3537 165.99 19.7084C164.875 19.063 163.672 18.7404 162.382 18.7404C161.091 18.7404 159.888 19.063 158.774 19.7084C157.659 20.3244 156.75 21.2484 156.046 22.4804C155.371 23.683 155.034 25.1204 155.034 26.7924C155.034 28.4644 155.371 29.931 156.046 31.1924C156.75 32.4537 157.659 33.4217 158.774 34.0964C159.918 34.7417 161.12 35.0644 162.382 35.0644C163.672 35.0644 164.875 34.7417 165.99 34.0964C167.104 33.451 167.999 32.5124 168.674 31.2804C169.378 30.019 169.73 28.5524 169.73 26.8804ZM203.334 14.7804V39.0244H198.318V36.1644C197.526 37.1617 196.485 37.9537 195.194 38.5404C193.933 39.0977 192.583 39.3764 191.146 39.3764C189.239 39.3764 187.523 38.9804 185.998 38.1884C184.502 37.3964 183.314 36.223 182.434 34.6684C181.583 33.1137 181.158 31.2364 181.158 29.0364V14.7804H186.13V28.2884C186.13 30.459 186.673 32.131 187.758 33.3044C188.843 34.4484 190.325 35.0204 192.202 35.0204C194.079 35.0204 195.561 34.4484 196.646 33.3044C197.761 32.131 198.318 30.459 198.318 28.2884V14.7804H203.334Z" fill="currentColor"/>
</svg>
