<svg width="179" height="186" viewBox="0 0 179 186" fill="none" xmlns="http://www.w3.org/2000/svg">
<path d="M89.676 174.018C89.1573 174.018 88.6386 173.905 88.1588 173.676L14.061 138.356C12.8331 137.769 12.0498 136.529 12.0498 135.166V25.6733C12.0498 24.4618 12.6708 23.3351 13.6941 22.6852C14.7138 22.0388 16.0017 21.9647 17.0955 22.4839L89.676 57.0801L162.257 22.4803C163.35 21.9647 164.631 22.0353 165.654 22.6852C166.681 23.3351 167.302 24.4618 167.302 25.6733V135.166C167.302 136.529 166.519 137.769 165.291 138.356L91.1932 173.676C90.7134 173.905 90.1947 174.018 89.676 174.018ZM19.1067 132.934L89.676 166.573L160.245 132.934V31.268L91.1932 64.183C90.237 64.6386 89.1185 64.6386 88.1623 64.183L19.1067 31.268V132.934Z" fill="currentColor"/>
<path d="M89.676 47.4129L28.1643 18.0936C26.4036 17.2529 25.6591 15.1443 26.4953 13.3854C27.3351 11.6229 29.4381 10.8847 31.1988 11.7112L89.676 39.5895L148.153 11.7112C149.917 10.8847 152.017 11.6229 152.857 13.3854C153.693 15.1443 152.948 17.2529 151.188 18.0936L89.676 47.4129Z" fill="currentColor"/>
<path d="M93.2045 60.9935H86.1475V170.486H93.2045V60.9935Z" fill="currentColor"/>
</svg>
